<svg id="Layer_1" enable-background="new 0 0 512 512" height="512" viewBox="0 0 512 512" width="512" xmlns="http://www.w3.org/2000/svg"><g><path d="m94.236 336.97c-37.646 11.882-61.97 42.103-61.97 76.991v83.039c0 8.284 6.716 15 15 15h172.279l-125.021-175.119c-.094.03-.195.06-.288.089z"/><path d="m269.683 424.979c-4.325 1.345-8.921 2.071-13.683 2.071s-9.357-.725-13.682-2.07l-20.706 33.603c-.509.826-1.088 1.583-1.72 2.274l36.108 50.576 36.11-50.58c-.631-.689-1.208-1.445-1.717-2.27z"/><path d="m417.763 336.97c-.092-.029-.193-.06-.287-.089l-125.021 175.119h172.279c8.284 0 15-6.716 15-15v-83.039c0-34.888-24.325-65.109-61.971-76.991z"/><path d="m239.841 380.787v.104c0 8.91 7.249 16.159 16.159 16.159s16.159-7.249 16.159-16.159v-.103c-5.339.78-10.738 1.201-16.155 1.201-5.42 0-10.821-.422-16.163-1.202z"/><path d="m324.056 359.11c-6.778 5.153-14.147 9.477-21.897 12.95v8.832c0 9.749-3.046 18.797-8.226 26.256l16.919 27.453 75.6-105.894c-7.031-1.7-14.542-3.46-22.091-5.197-10.913 11.67-24.102 23.282-40.305 35.6z"/><path d="m187.95 359.11c-16.204-12.318-29.392-23.93-40.306-35.601-7.55 1.737-15.063 3.498-22.096 5.198l75.602 105.897 16.918-27.455c-5.18-7.46-8.226-16.507-8.226-26.257v-8.835c-7.749-3.472-15.116-7.796-21.892-12.947z"/><path d="m217.645 148.385-40.434 46.34c-8.355 9.577-20.441 15.071-33.158 15.072h-.001c-5.162 0-10.206-.905-14.95-2.619.515 26.777 6.769 49.202 19.556 70.221 12.059 19.826 29.59 37.906 56.843 58.624 14.391 10.94 32.327 16.965 50.503 16.965s36.112-6.025 50.502-16.965c27.252-20.717 44.783-38.797 56.843-58.623 13.514-22.214 19.741-45.965 19.598-74.669l.003-57.389c-9.249 2.006-18.776 3.042-28.461 3.042h-136.844z"/><path d="m129.175 164.839c0 8.813 7.144 15.957 15.957 15.957 4.675 0 9.114-2.05 12.146-5.608l47.549-55.804h149.661c57.582 0 104.424-46.866 104.385-104.456-.006-8.254-6.746-14.928-15-14.928h-210.43c-56.008 0-101.709 44.112-104.267 99.487v.011c-.076 1.62-.001 65.341-.001 65.341z"/></g></svg>