<svg id="Capa_1" enable-background="new 0 0 512 512" height="512" viewBox="0 0 512 512" width="512" xmlns="http://www.w3.org/2000/svg"><g><path d="m293 446.057h-74v35.943h-87.766v30h249.532v-30h-87.766z"/><path d="m0 369.19h512v46.867h-512z"/><path d="m226 139.179v119.988h-30.132v.643l59.181 72.69h1.902l59.181-72.69v-.643h-30.132v-119.988z"/><path d="m451.97 80.943v149.057h-105.838v40.478l-55.942 68.712h221.81v-258.247z"/><path d="m165.868 270.478v-40.478h-105.838v-149.057h-60.03v258.247h221.81z"/><path d="m278.954 109.179 120.66-109.179h-287.228l120.66 109.179z"/><path d="m421.97 20.229-105.97 95.888v83.883h105.97z"/><path d="m196 116.117-105.97-95.888v179.771h105.97z"/></g></svg>