<svg id="Capa_1" enable-background="new 0 0 512 512" height="512" viewBox="0 0 512 512" width="512" xmlns="http://www.w3.org/2000/svg"><g><path d="m293 446.057h-74v35.943h-87.766v30h249.532v-30h-87.766z"/><path d="m0 369.19h512v46.867h-512z"/><path d="m286 259.987v-119.987h30.132v-.643l-59.181-72.69h-1.902l-59.181 72.69v.643h30.132v119.987z"/><path d="m451.97 80.943v149.057h-135.97v59.987l-120 .001v-59.988h-135.97v-149.057h-60.03v258.247h512v-258.247z"/><path d="m240.788 36.667h30.424l37.278 45.787 91.123-82.454h-287.226l91.123 82.454z"/><path d="m196 170h-.132-30v-41.311l18.676-22.939-94.514-85.521v179.771h105.97z"/><path d="m421.97 20.229-94.514 85.521 18.676 22.939v41.311h-30-.132v30h105.97z"/></g></svg>